<mxfile host="app.diagrams.net" modified="2024-07-01T04:04:42.427Z" agent="Mozilla/5.0 (Windows NT 10.0; Win64; x64) AppleWebKit/537.36 (KHTML, like Gecko) Chrome/123.0.0.0 Safari/537.36 OPR/109.0.0.0" version="24.6.4" etag="STAOi5D2Jqtw07mosUbB" type="github">
  <diagram name="Page-1" id="ahIcV_-wYT5JMotsiQKQ">
    <mxGraphModel>
      <root>
        <mxCell id="0" />
        <mxCell id="1" parent="0" />
      </root>
    </mxGraphModel>
  </diagram>
</mxfile>
